<svg id="Layer_1" enable-background="new 0 0 512 512" height="512" viewBox="0 0 512 512" width="512" xmlns="http://www.w3.org/2000/svg"><g><path d="m0 284.085v105.043c0 32.315 26.29 58.605 58.62 58.605 17.446 0 34.042-7.53 45.532-20.659l68.138-77.874h-44.84c-52.35 0-98.807-25.688-127.45-65.115z"/><path d="m127.451 319.2h257.099c70.276 0 127.45-57.174 127.45-127.45 0-70.309-57.174-127.483-127.451-127.483h-257.098c-70.277 0-127.451 57.174-127.451 127.483 0 70.276 57.174 127.45 127.451 127.45zm289.216-142.467c8.279 0 15 6.72 15 15s-6.721 15-15 15-15-6.72-15-15 6.721-15 15-15zm-40.167-40.166c8.279 0 15 6.72 15 15s-6.721 15-15 15-15-6.72-15-15 6.721-15 15-15zm0 80.333c8.279 0 15 6.72 15 15s-6.721 15-15 15-15-6.72-15-15 6.721-15 15-15zm-40.167-40.167c8.279 0 15 6.72 15 15s-6.721 15-15 15c-8.278 0-15-6.72-15-15s6.722-15 15-15zm-224.933 0h17.133v-17.133c0-8.284 6.716-15 15-15s15 6.716 15 15v17.133h17.133c8.284 0 15 6.716 15 15s-6.716 15-15 15h-17.133v17.133c0 8.284-6.716 15-15 15s-15-6.716-15-15v-17.133h-17.133c-8.284 0-15-6.716-15-15s6.716-15 15-15z"/><path d="m384.549 349.2h-44.84l68.138 77.874c11.49 13.129 28.086 20.659 45.532 20.659 32.33 0 58.62-26.29 58.62-58.605v-105.043c-28.642 39.427-75.099 65.115-127.45 65.115z"/></g></svg>